<mxfile host="app.diagrams.net" agent="Mozilla/5.0 (Windows NT 10.0; Win64; x64) AppleWebKit/537.36 (KHTML, like Gecko) Chrome/132.0.0.0 Safari/537.36" version="26.1.1">
  <diagram name="Página-1" id="jxOjQ3wGSX5_nUKt-czR">
    <mxGraphModel dx="1434" dy="780" grid="1" gridSize="10" guides="1" tooltips="1" connect="1" arrows="1" fold="1" page="1" pageScale="1" pageWidth="827" pageHeight="1169" math="0" shadow="0">
      <root>
        <mxCell id="0" />
        <mxCell id="1" parent="0" />
        <mxCell id="7gBoOWqWMFeujc_fOUjo-8" style="edgeStyle=orthogonalEdgeStyle;rounded=0;orthogonalLoop=1;jettySize=auto;html=1;entryX=0;entryY=0.5;entryDx=0;entryDy=0;" parent="1" source="7gBoOWqWMFeujc_fOUjo-2" target="7gBoOWqWMFeujc_fOUjo-7" edge="1">
          <mxGeometry relative="1" as="geometry" />
        </mxCell>
        <mxCell id="7gBoOWqWMFeujc_fOUjo-9" style="edgeStyle=orthogonalEdgeStyle;rounded=0;orthogonalLoop=1;jettySize=auto;html=1;" parent="1" source="7gBoOWqWMFeujc_fOUjo-2" target="7gBoOWqWMFeujc_fOUjo-5" edge="1">
          <mxGeometry relative="1" as="geometry" />
        </mxCell>
        <mxCell id="XnAF4wxCnifcHbbFNeuc-1" style="edgeStyle=orthogonalEdgeStyle;rounded=0;orthogonalLoop=1;jettySize=auto;html=1;" edge="1" parent="1" source="7gBoOWqWMFeujc_fOUjo-2" target="XnAF4wxCnifcHbbFNeuc-2">
          <mxGeometry relative="1" as="geometry">
            <mxPoint x="220" y="160" as="targetPoint" />
          </mxGeometry>
        </mxCell>
        <mxCell id="XnAF4wxCnifcHbbFNeuc-3" style="edgeStyle=orthogonalEdgeStyle;rounded=0;orthogonalLoop=1;jettySize=auto;html=1;" edge="1" parent="1" source="7gBoOWqWMFeujc_fOUjo-2" target="XnAF4wxCnifcHbbFNeuc-4">
          <mxGeometry relative="1" as="geometry">
            <mxPoint x="220" y="520" as="targetPoint" />
            <Array as="points">
              <mxPoint x="220" y="335" />
            </Array>
          </mxGeometry>
        </mxCell>
        <mxCell id="XnAF4wxCnifcHbbFNeuc-7" style="edgeStyle=orthogonalEdgeStyle;rounded=0;orthogonalLoop=1;jettySize=auto;html=1;entryX=0;entryY=0.5;entryDx=0;entryDy=0;" edge="1" parent="1" source="7gBoOWqWMFeujc_fOUjo-2" target="XnAF4wxCnifcHbbFNeuc-6">
          <mxGeometry relative="1" as="geometry">
            <Array as="points">
              <mxPoint x="220" y="335" />
              <mxPoint x="220" y="225" />
            </Array>
          </mxGeometry>
        </mxCell>
        <mxCell id="XnAF4wxCnifcHbbFNeuc-10" style="edgeStyle=orthogonalEdgeStyle;rounded=0;orthogonalLoop=1;jettySize=auto;html=1;" edge="1" parent="1" source="7gBoOWqWMFeujc_fOUjo-2" target="XnAF4wxCnifcHbbFNeuc-11">
          <mxGeometry relative="1" as="geometry">
            <mxPoint x="105" y="160" as="targetPoint" />
          </mxGeometry>
        </mxCell>
        <mxCell id="7gBoOWqWMFeujc_fOUjo-2" value="Usuário" style="shape=umlActor;verticalLabelPosition=bottom;verticalAlign=top;html=1;" parent="1" vertex="1">
          <mxGeometry x="80" y="300" width="50" height="70" as="geometry" />
        </mxCell>
        <mxCell id="7gBoOWqWMFeujc_fOUjo-5" value="&lt;div&gt;Postagem&lt;/div&gt;" style="ellipse;whiteSpace=wrap;html=1;" parent="1" vertex="1">
          <mxGeometry x="35" y="570" width="140" height="70" as="geometry" />
        </mxCell>
        <mxCell id="7gBoOWqWMFeujc_fOUjo-7" value="Curtir&lt;div&gt;&lt;br&gt;&lt;/div&gt;" style="ellipse;whiteSpace=wrap;html=1;" parent="1" vertex="1">
          <mxGeometry x="302.5" y="390" width="160" height="80" as="geometry" />
        </mxCell>
        <mxCell id="XnAF4wxCnifcHbbFNeuc-2" value="Comentar" style="ellipse;whiteSpace=wrap;html=1;" vertex="1" parent="1">
          <mxGeometry x="307.5" y="295" width="150" height="80" as="geometry" />
        </mxCell>
        <mxCell id="XnAF4wxCnifcHbbFNeuc-4" value="Exclusão dos seus posts" style="ellipse;whiteSpace=wrap;html=1;" vertex="1" parent="1">
          <mxGeometry x="175" y="565" width="135" height="80" as="geometry" />
        </mxCell>
        <mxCell id="XnAF4wxCnifcHbbFNeuc-5" value="Cadastrar" style="ellipse;whiteSpace=wrap;html=1;" vertex="1" parent="1">
          <mxGeometry x="310" y="70" width="145" height="90" as="geometry" />
        </mxCell>
        <mxCell id="XnAF4wxCnifcHbbFNeuc-6" value="Logar" style="ellipse;whiteSpace=wrap;html=1;" vertex="1" parent="1">
          <mxGeometry x="315" y="180" width="135" height="90" as="geometry" />
        </mxCell>
        <mxCell id="XnAF4wxCnifcHbbFNeuc-8" style="edgeStyle=orthogonalEdgeStyle;rounded=0;orthogonalLoop=1;jettySize=auto;html=1;entryX=0;entryY=0.411;entryDx=0;entryDy=0;entryPerimeter=0;" edge="1" parent="1" source="7gBoOWqWMFeujc_fOUjo-2" target="XnAF4wxCnifcHbbFNeuc-5">
          <mxGeometry relative="1" as="geometry" />
        </mxCell>
        <mxCell id="XnAF4wxCnifcHbbFNeuc-11" value="denunciar (posts ou usários)" style="ellipse;whiteSpace=wrap;html=1;" vertex="1" parent="1">
          <mxGeometry x="32.5" y="80" width="145" height="80" as="geometry" />
        </mxCell>
      </root>
    </mxGraphModel>
  </diagram>
</mxfile>
